<svg width="280" height="64" viewBox="0 0 280 64" fill="none" xmlns="http://www.w3.org/2000/svg">
<path d="M56.085 47.619V15.873L28.5718 0L1.05859 15.873V47.619L28.5718 63.492L56.085 47.619Z" fill="#3DC0D4"/>
<path d="M56.085 47.619V15.873L28.5718 0L1.05859 15.873V47.619L28.5718 63.492L56.085 47.619Z" fill="url(#paint0_linear_22997_157594)" fill-opacity="0.4"/>
<path d="M56.0855 47.6191L28.5723 63.4921V31.746L56.0855 15.873V47.6191Z" fill="#00839C"/>
<path d="M56.0855 47.6191L28.5723 63.4921V31.746L56.0855 15.873V47.6191Z" fill="url(#paint1_linear_22997_157594)"/>
<path d="M1.05859 47.6191L28.5718 63.4921V31.746L1.05859 15.873V47.6191Z" fill="#0CA3BB"/>
<path d="M1.05859 47.6191L28.5718 63.4921V31.746L1.05859 15.873V47.6191Z" fill="url(#paint2_linear_22997_157594)" fill-opacity="0.5"/>
<path fill-rule="evenodd" clip-rule="evenodd" d="M12.0801 29.3487L15.9019 31.5537L16.283 31.3338L12.4611 29.1289L12.0801 29.3487Z" fill="#0E879E"/>
<path fill-rule="evenodd" clip-rule="evenodd" d="M15.9023 31.5538V50.2337L16.2831 50.0139V31.334L15.9023 31.5538Z" fill="#0E879E"/>
<path fill-rule="evenodd" clip-rule="evenodd" d="M15.9019 50.2333L12.0801 48.0284L12.4611 47.8086L16.283 50.0135L15.9019 50.2333Z" fill="#0E879E"/>
<path fill-rule="evenodd" clip-rule="evenodd" d="M12.0801 48.0286V29.3487L12.4609 29.1289V47.8088L12.0801 48.0286Z" fill="#0E879E"/>
<path fill-rule="evenodd" clip-rule="evenodd" d="M12.0801 29.3487L12.4609 29.1289L12.0801 29.3487Z" fill="#0E879E"/>
<path d="M12.0801 29.3486L15.9019 31.5535V50.2334L12.0801 48.0285V29.3486Z" fill="white"/>
<path fill-rule="evenodd" clip-rule="evenodd" d="M35.2324 15.6279L40.1291 15.6279V16.0676L35.2324 16.0676V15.6279Z" fill="#0E879E"/>
<path fill-rule="evenodd" clip-rule="evenodd" d="M28.5898 22.1523L28.8196 22.1523V22.592H28.5898V22.1523Z" fill="#0E879E"/>
<path fill-rule="evenodd" clip-rule="evenodd" d="M28.8196 19.3271L28.5898 19.3271V19.7668H28.8196V19.3271Z" fill="#0E879E"/>
<path fill-rule="evenodd" clip-rule="evenodd" d="M33.2871 12.7861C33.9058 13.1411 34.3963 13.5633 34.7302 14.0284V14.4681C34.3963 14.003 33.9058 13.5808 33.2871 13.2258V12.7861Z" fill="#0E879E"/>
<path fill-rule="evenodd" clip-rule="evenodd" d="M34.7305 14.0283C35.0641 14.4934 35.2347 14.992 35.2323 15.4954V15.9351C35.2347 15.4317 35.0641 14.9331 34.7305 14.468V14.0283Z" fill="#0E879E"/>
<path fill-rule="evenodd" clip-rule="evenodd" d="M40.129 15.4953C40.129 14.4006 39.6614 13.3228 38.7676 12.3574V12.7971C39.6614 13.7625 40.129 14.8403 40.129 15.935V15.4953Z" fill="#0E879E"/>
<path fill-rule="evenodd" clip-rule="evenodd" d="M38.7675 12.3578C37.873 11.3924 36.5796 10.5691 35.002 9.96094V10.4006C36.5796 11.0088 37.873 11.832 38.7675 12.7975V12.3578Z" fill="#0E879E"/>
<path fill-rule="evenodd" clip-rule="evenodd" d="M35.002 9.96089C33.4243 9.35271 31.611 8.9784 29.7227 8.87109V9.31077C31.611 9.41808 33.4243 9.79239 35.002 10.4006V9.96089Z" fill="#0E879E"/>
<path fill-rule="evenodd" clip-rule="evenodd" d="M29.7222 8.87093C27.8339 8.76362 25.9288 8.92664 24.1758 9.34554V9.78522C25.9288 9.36632 27.8339 9.2033 29.7222 9.31061V8.87093Z" fill="#0E879E"/>
<path fill-rule="evenodd" clip-rule="evenodd" d="M24.1756 9.3457C22.4225 9.76461 20.8756 10.4265 19.6719 11.2726V11.7123C20.8756 10.8661 22.4225 10.2043 24.1756 9.78538V9.3457Z" fill="#0E879E"/>
<path fill-rule="evenodd" clip-rule="evenodd" d="M19.6728 11.2725C18.4691 12.1186 17.6456 13.123 17.2754 14.1967V14.6364C17.6456 13.5627 18.4691 12.5583 19.6728 11.7121V11.2725Z" fill="#0E879E"/>
<path fill-rule="evenodd" clip-rule="evenodd" d="M17.2738 14.1963C17.1332 14.6043 17.0597 15.0175 17.0527 15.4305V15.8702C17.0597 15.4572 17.1332 15.044 17.2738 14.636V14.1963Z" fill="#0E879E"/>
<path fill-rule="evenodd" clip-rule="evenodd" d="M17.0533 15.4307C17.0419 16.1045 17.2079 16.7779 17.5491 17.4274V17.8671C17.2079 17.2176 17.0419 16.5442 17.0533 15.8703V15.4307Z" fill="#0E879E"/>
<path fill-rule="evenodd" clip-rule="evenodd" d="M17.5488 17.4277C18.0996 18.4753 19.0896 19.4283 20.4313 20.2024V20.6421C19.0896 19.868 18.0996 18.915 17.5488 17.8674V17.4277Z" fill="#0E879E"/>
<path fill-rule="evenodd" clip-rule="evenodd" d="M20.4316 20.2021C21.5006 20.8222 22.7722 21.3138 24.1727 21.6485V22.0882C22.7722 21.7535 21.5006 21.2619 20.4316 20.6418V20.2021Z" fill="#0E879E"/>
<path fill-rule="evenodd" clip-rule="evenodd" d="M24.1738 21.6484C25.5743 21.9831 27.076 22.1542 28.5919 22.1519V22.5915C27.076 22.5939 25.5743 22.4228 24.1738 22.0881V21.6484Z" fill="#0E879E"/>
<path fill-rule="evenodd" clip-rule="evenodd" d="M28.5898 19.3265C27.4976 19.3265 26.4222 19.1711 25.459 18.874V19.3137C26.4222 19.6108 27.4976 19.7662 28.5898 19.7662V19.3265Z" fill="#0E879E"/>
<path fill-rule="evenodd" clip-rule="evenodd" d="M25.4598 18.8745C24.4966 18.5775 23.6752 18.148 23.0684 17.624V18.0637C23.6752 18.5876 24.4966 19.0172 25.4598 19.3142V18.8745Z" fill="#0E879E"/>
<path fill-rule="evenodd" clip-rule="evenodd" d="M23.0669 17.6243C22.4606 17.1004 22.0874 16.4982 21.9805 15.8711V16.3108C22.0874 16.9379 22.4606 17.5401 23.0669 18.064V17.6243Z" fill="#0E879E"/>
<path fill-rule="evenodd" clip-rule="evenodd" d="M21.9809 15.8701C21.9616 15.7572 21.9511 15.6442 21.9492 15.5312V15.9709C21.9511 16.0838 21.9616 16.1969 21.9809 16.3098V15.8701Z" fill="#0E879E"/>
<path fill-rule="evenodd" clip-rule="evenodd" d="M21.9495 15.5314C21.941 15.017 22.112 14.5057 22.4544 14.0283V14.468C22.112 14.9454 21.941 15.4567 21.9495 15.9711V15.5314Z" fill="#0E879E"/>
<path fill-rule="evenodd" clip-rule="evenodd" d="M22.4551 14.0288C22.8731 13.4467 23.5335 12.9329 24.3778 12.5332V12.9729C23.5335 13.3726 22.8731 13.8863 22.4551 14.4685V14.0288Z" fill="#0E879E"/>
<path fill-rule="evenodd" clip-rule="evenodd" d="M24.377 12.5334C25.2213 12.1337 26.2234 11.8602 27.2947 11.7373V12.177C26.2234 12.2999 25.2213 12.5734 24.377 12.9731V12.5334Z" fill="#0E879E"/>
<path fill-rule="evenodd" clip-rule="evenodd" d="M27.2949 11.7367C28.3662 11.6138 29.4734 11.6452 30.5186 11.8281V12.2678C29.4734 12.0848 28.3662 12.0535 27.2949 12.1764V11.7367Z" fill="#0E879E"/>
<path fill-rule="evenodd" clip-rule="evenodd" d="M30.5195 11.8281C31.5647 12.011 32.5156 12.3399 33.2879 12.7854V13.2251C32.5156 12.7795 31.5647 12.4507 30.5195 12.2678V11.8281Z" fill="#0E879E"/>
<path d="M33.2876 12.786C33.9063 13.141 34.3968 13.5632 34.7307 14.0283C35.0646 14.4933 35.2353 14.992 35.2329 15.4954L35.2327 15.6281H40.1293V15.4955C40.1293 14.4008 39.6613 13.323 38.7669 12.3576C37.8724 11.3922 36.579 10.5689 35.0014 9.96072C33.4237 9.35255 31.6104 8.97823 29.7221 8.87093C27.8337 8.76362 25.9287 8.92664 24.1757 9.34554C22.4226 9.76445 20.8757 10.4263 19.672 11.2725C18.4682 12.1187 17.6447 13.1231 17.2745 14.1967C16.9043 15.2704 16.9987 16.3801 17.5495 17.4277C18.1002 18.4752 19.0902 19.4283 20.4319 20.2023C21.5009 20.8224 22.7724 21.314 24.1729 21.6487C25.5735 21.9834 27.0751 22.1545 28.591 22.1521H28.8209L28.8202 19.3268H28.5903C27.4981 19.3268 26.4228 19.1713 25.4595 18.8743C24.4963 18.5772 23.6749 18.1477 23.0681 17.6238C22.4613 17.0998 22.0878 16.4977 21.9808 15.8706C21.8737 15.2435 22.0364 14.6108 22.4544 14.0287C22.8724 13.4465 23.5328 12.9328 24.3771 12.533C25.2214 12.1333 26.2236 11.8599 27.2948 11.7369C28.3661 11.614 29.4733 11.6454 30.5185 11.8283C31.5637 12.0112 32.5146 12.34 33.2869 12.7856" fill="white"/>
<path fill-rule="evenodd" clip-rule="evenodd" d="M36.6728 34.4645V38.4897L36.2793 38.2625V34.2373L36.6728 34.4645Z" fill="#00677A"/>
<path fill-rule="evenodd" clip-rule="evenodd" d="M36.6731 38.4897L41.414 35.7545L41.0203 35.5273L36.2793 38.2625L36.6731 38.4897Z" fill="#00677A"/>
<path fill-rule="evenodd" clip-rule="evenodd" d="M41.413 35.7545V50.0848L41.0195 49.8576V35.5273L41.413 35.7545Z" fill="#00677A"/>
<path fill-rule="evenodd" clip-rule="evenodd" d="M41.4133 50.0851L45.1686 47.9186L44.7749 47.6914L41.0195 49.8579L41.4133 50.0851Z" fill="#00677A"/>
<path fill-rule="evenodd" clip-rule="evenodd" d="M45.1689 47.9185V33.5885L44.7754 33.3613V47.6914L45.1689 47.9185Z" fill="#00677A"/>
<path fill-rule="evenodd" clip-rule="evenodd" d="M45.1692 33.5883L49.9101 30.8531L49.5163 30.626L44.7754 33.3611L45.1692 33.5883Z" fill="#00677A"/>
<path fill-rule="evenodd" clip-rule="evenodd" d="M49.9091 30.8531V26.8278L49.5156 26.6006V30.626L49.9091 30.8531Z" fill="#00677A"/>
<path fill-rule="evenodd" clip-rule="evenodd" d="M49.9103 26.8278L36.6731 34.4646L36.2793 34.2374L49.5165 26.6006L49.9103 26.8278Z" fill="#00677A"/>
<path fill-rule="evenodd" clip-rule="evenodd" d="M36.6728 34.4645L36.2793 34.2373L36.6728 34.4645Z" fill="#00677A"/>
<path d="M36.6719 34.464V38.4892L41.4128 35.754V50.0842L45.1682 47.9177V33.5877L49.9091 30.8525V26.8271L36.6719 34.464Z" fill="white"/>
<path d="M74.2852 17.625V46.3732H96.7702V40.2706H81.1705V34.9503H94.7159V28.8473H81.1705V23.727H96.5654V17.625H74.2852Z" fill="black"/>
<path d="M183.359 29.2663L175.972 17.626H168.688V46.3739H175.492V28.8055L183.032 40.0188H183.522L191.143 28.6846V46.3739H198.027V17.626H190.742L183.359 29.2663Z" fill="black"/>
<path d="M220.186 29.2663L212.801 17.626H205.516V46.3739H212.32V28.8055L219.859 40.0188H220.349L227.97 28.6846V46.3739H234.857V17.626H227.571L220.186 29.2663Z" fill="black"/>
<path d="M242.344 17.625H249.27V46.3732H242.344V17.625Z" fill="black"/>
<path d="M255.586 17.625V23.9292H264.33V46.3732H271.256V23.9295H280V17.625H255.586Z" fill="black"/>
<path d="M147.065 17.1426C144.066 17.1426 141.135 18.0139 138.641 19.6464C136.148 21.2789 134.204 23.5993 133.057 26.314C131.909 29.0287 131.609 32.016 132.194 34.8979C132.779 37.7799 134.223 40.4272 136.343 42.5049C138.464 44.5827 141.166 45.9977 144.107 46.5709C147.048 47.1442 150.097 46.85 152.868 45.7255C155.639 44.601 158.007 42.6968 159.673 40.2536C161.339 37.8104 162.228 34.9379 162.228 31.9995C162.224 28.0606 160.625 24.2842 157.782 21.499C154.939 18.7137 151.085 17.147 147.065 17.1426ZM147.065 40.5513C145.339 40.5512 143.652 40.0495 142.216 39.1097C140.781 38.1699 139.663 36.8343 139.002 35.2716C138.342 33.709 138.169 31.9895 138.506 30.3306C138.843 28.6718 139.674 27.1481 140.895 25.9522C142.115 24.7562 143.671 23.9418 145.364 23.612C147.057 23.2821 148.812 23.4515 150.406 24.0988C152.001 24.7462 153.364 25.8423 154.323 27.2487C155.282 28.655 155.794 30.3084 155.794 31.9998C155.791 34.2672 154.871 36.441 153.234 38.0442C151.598 39.6475 149.379 40.5489 147.065 40.5513Z" fill="black"/>
<path d="M117.114 23.4481C118.26 23.445 119.396 23.6647 120.456 24.0946C121.515 24.5246 122.477 25.1561 123.285 25.9527L123.499 26.1623L128.049 21.7041L127.835 21.4948C126.072 19.7673 123.901 18.4924 121.515 17.7832C119.129 17.0741 116.601 16.9524 114.156 17.429C111.71 17.9057 109.422 18.9659 107.495 20.5158C105.567 22.0657 104.06 24.0574 103.105 26.3146C102.151 28.5718 101.78 31.0247 102.024 33.4561C102.269 35.8874 103.121 38.2223 104.506 40.2537C105.892 42.2851 107.767 43.9505 109.966 45.1023C112.165 46.254 114.62 46.8567 117.113 46.8568C119.105 46.8621 121.079 46.4802 122.919 45.7333C124.759 44.9863 126.43 43.8891 127.835 42.5052L128.049 42.2959L123.497 37.8377L123.284 38.047C122.269 39.0414 121.019 39.7752 119.646 40.1834C118.272 40.5917 116.817 40.6617 115.41 40.3873C114.002 40.1129 112.685 39.5026 111.575 38.6104C110.466 37.7182 109.598 36.5717 109.049 35.2724C108.5 33.9731 108.286 32.5611 108.427 31.1615C108.567 29.762 109.058 28.418 109.855 27.2487C110.653 26.0793 111.732 25.1208 112.998 24.4578C114.264 23.7949 115.677 23.4481 117.112 23.4481" fill="black"/>
<defs>
<linearGradient id="paint0_linear_22997_157594" x1="28.5845" y1="-2.60112e-07" x2="28.6094" y2="16.8177" gradientUnits="userSpaceOnUse">
<stop stop-color="#0E879E"/>
<stop offset="1" stop-color="#0E879E" stop-opacity="0"/>
</linearGradient>
<linearGradient id="paint1_linear_22997_157594" x1="45.0598" y1="39.6812" x2="28.5643" y2="31.5924" gradientUnits="userSpaceOnUse">
<stop stop-color="#0E879E" stop-opacity="0.2"/>
<stop offset="1" stop-color="#056F83"/>
</linearGradient>
<linearGradient id="paint2_linear_22997_157594" x1="1.05859" y1="32.0417" x2="14.804" y2="39.6899" gradientUnits="userSpaceOnUse">
<stop stop-color="#0E879E"/>
<stop offset="1" stop-color="#0E879E" stop-opacity="0"/>
</linearGradient>
</defs>
</svg>
