<svg width="52" height="90" viewBox="0 0 52 90" fill="none" xmlns="http://www.w3.org/2000/svg">
<rect width="52" height="90" fill="white"/>
<path d="M44 55V34L26 23.5L8 34V55L26 65.5L44 55Z" fill="#3DC0D4"/>
<path d="M44 55V34L26 23.5L8 34V55L26 65.5L44 55Z" fill="url(#paint0_linear_17144_138179)" fill-opacity="0.4"/>
<path d="M43.9998 55.0002L25.9998 65.5002V44.5002L43.9998 34.0002V55.0002Z" fill="#00839C"/>
<path d="M43.9998 55.0002L25.9998 65.5002V44.5002L43.9998 34.0002V55.0002Z" fill="url(#paint1_linear_17144_138179)"/>
<path d="M8 55.0002L26 65.5002V44.5002L8 34.0002V55.0002Z" fill="#0CA3BB"/>
<path d="M8 55.0002L26 65.5002V44.5002L8 34.0002V55.0002Z" fill="url(#paint2_linear_17144_138179)" fill-opacity="0.5"/>
<path fill-rule="evenodd" clip-rule="evenodd" d="M15.21 42.9142L17.7103 44.3728L17.9596 44.2274L15.4593 42.7688L15.21 42.9142Z" fill="#0E879E"/>
<path fill-rule="evenodd" clip-rule="evenodd" d="M17.7102 44.3727V56.7295L17.9593 56.584V44.2273L17.7102 44.3727Z" fill="#0E879E"/>
<path fill-rule="evenodd" clip-rule="evenodd" d="M17.7103 56.7295L15.21 55.2709L15.4593 55.1255L17.9596 56.584L17.7103 56.7295Z" fill="#0E879E"/>
<path fill-rule="evenodd" clip-rule="evenodd" d="M15.21 55.271V42.9142L15.4591 42.7688V55.1255L15.21 55.271Z" fill="#0E879E"/>
<path fill-rule="evenodd" clip-rule="evenodd" d="M15.21 42.9142L15.4591 42.7688L15.21 42.9142Z" fill="#0E879E"/>
<path d="M15.21 42.9143L17.7103 44.3729V56.7296L15.21 55.2711V42.9143Z" fill="white"/>
<path fill-rule="evenodd" clip-rule="evenodd" d="M30.3577 33.8381L33.5612 33.8381V34.129L30.3577 34.129V33.8381Z" fill="#0E879E"/>
<path fill-rule="evenodd" clip-rule="evenodd" d="M26.0127 38.1541L26.163 38.1541V38.4449H26.0127V38.1541Z" fill="#0E879E"/>
<path fill-rule="evenodd" clip-rule="evenodd" d="M26.1633 38.1539L26.1628 36.2849V36.5758L26.1633 38.4447V38.1539Z" fill="#0E879E"/>
<path fill-rule="evenodd" clip-rule="evenodd" d="M26.1625 36.2849L26.0122 36.2849V36.5758H26.1625V36.2849Z" fill="#0E879E"/>
<path fill-rule="evenodd" clip-rule="evenodd" d="M29.0852 31.958C29.49 32.1928 29.8109 32.4721 30.0293 32.7798V33.0706C29.8109 32.763 29.49 32.4837 29.0852 32.2489V31.958Z" fill="#0E879E"/>
<path fill-rule="evenodd" clip-rule="evenodd" d="M30.0293 32.7803C30.2476 33.0879 30.3592 33.4178 30.3576 33.7508V34.0416C30.3592 33.7086 30.2476 33.3788 30.0293 33.0711V32.7803Z" fill="#0E879E"/>
<path fill-rule="evenodd" clip-rule="evenodd" d="M33.5609 33.7503C33.5609 33.0261 33.2549 32.3132 32.6702 31.6746V31.9654C33.2549 32.604 33.5609 33.317 33.5609 34.0411V33.7503Z" fill="#0E879E"/>
<path fill-rule="evenodd" clip-rule="evenodd" d="M32.6701 31.6749C32.0849 31.0362 31.2387 30.4917 30.2065 30.0894V30.3802C31.2387 30.7825 32.0849 31.3271 32.6701 31.9657V31.6749Z" fill="#0E879E"/>
<path fill-rule="evenodd" clip-rule="evenodd" d="M30.2066 30.0891C29.1744 29.6868 27.9881 29.4391 26.7527 29.3682V29.659C27.9881 29.73 29.1744 29.9776 30.2066 30.3799V30.0891Z" fill="#0E879E"/>
<path fill-rule="evenodd" clip-rule="evenodd" d="M26.7527 29.3684C25.5173 29.2974 24.2709 29.4052 23.124 29.6823V29.9732C24.2709 29.6961 25.5173 29.5882 26.7527 29.6592V29.3684Z" fill="#0E879E"/>
<path fill-rule="evenodd" clip-rule="evenodd" d="M23.124 29.6821C21.9771 29.9592 20.965 30.3971 20.1775 30.9568V31.2477C20.965 30.6879 21.9771 30.2501 23.124 29.973V29.6821Z" fill="#0E879E"/>
<path fill-rule="evenodd" clip-rule="evenodd" d="M20.1774 30.957C19.3898 31.5168 18.8511 32.1812 18.6089 32.8914V33.1823C18.8511 32.472 19.3898 31.8076 20.1774 31.2479V30.957Z" fill="#0E879E"/>
<path fill-rule="evenodd" clip-rule="evenodd" d="M18.609 32.8916C18.517 33.1615 18.4689 33.4348 18.4644 33.708V33.9989C18.4689 33.7257 18.517 33.4523 18.609 33.1825V32.8916Z" fill="#0E879E"/>
<path fill-rule="evenodd" clip-rule="evenodd" d="M18.4645 33.7078C18.4571 34.1535 18.5656 34.599 18.7888 35.0286V35.3195C18.5656 34.8898 18.4571 34.4444 18.4645 33.9986V33.7078Z" fill="#0E879E"/>
<path fill-rule="evenodd" clip-rule="evenodd" d="M18.7891 35.0286C19.1494 35.7215 19.7971 36.352 20.6748 36.864V37.1549C19.7971 36.6428 19.1494 36.0124 18.7891 35.3194V35.0286Z" fill="#0E879E"/>
<path fill-rule="evenodd" clip-rule="evenodd" d="M20.6748 36.8645C21.3742 37.2747 22.2061 37.5999 23.1223 37.8213V38.1121C22.2061 37.8907 21.3742 37.5655 20.6748 37.1554V36.8645Z" fill="#0E879E"/>
<path fill-rule="evenodd" clip-rule="evenodd" d="M23.1221 37.8208C24.0383 38.0422 25.0208 38.1554 26.0125 38.1538V38.4447C25.0208 38.4462 24.0383 38.333 23.1221 38.1116V37.8208Z" fill="#0E879E"/>
<path fill-rule="evenodd" clip-rule="evenodd" d="M26.0124 36.2849C25.2978 36.2849 24.5943 36.1821 23.9641 35.9856V36.2764C24.5943 36.4729 25.2978 36.5758 26.0124 36.5758V36.2849Z" fill="#0E879E"/>
<path fill-rule="evenodd" clip-rule="evenodd" d="M23.9637 35.9854C23.3335 35.7889 22.7962 35.5048 22.3992 35.1582V35.4491C22.7962 35.7956 23.3335 36.0798 23.9637 36.2763V35.9854Z" fill="#0E879E"/>
<path fill-rule="evenodd" clip-rule="evenodd" d="M22.3988 35.1585C22.0021 34.812 21.758 34.4136 21.688 33.9988V34.2896C21.758 34.7045 22.0021 35.1028 22.3988 35.4494V35.1585Z" fill="#0E879E"/>
<path fill-rule="evenodd" clip-rule="evenodd" d="M21.6879 33.9983C21.6753 33.9236 21.6685 33.8489 21.6672 33.7742V34.065C21.6685 34.1397 21.6753 34.2145 21.6879 34.2892V33.9983Z" fill="#0E879E"/>
<path fill-rule="evenodd" clip-rule="evenodd" d="M21.6672 33.7745C21.6616 33.4343 21.7735 33.0961 21.9975 32.7803V33.0711C21.7735 33.3869 21.6616 33.7251 21.6672 34.0654V33.7745Z" fill="#0E879E"/>
<path fill-rule="evenodd" clip-rule="evenodd" d="M21.998 32.7801C22.2715 32.395 22.7036 32.0552 23.2559 31.7908V32.0816C22.7036 32.3461 22.2715 32.6859 21.998 33.071V32.7801Z" fill="#0E879E"/>
<path fill-rule="evenodd" clip-rule="evenodd" d="M23.2556 31.7908C23.808 31.5264 24.4636 31.3455 25.1645 31.2642V31.555C24.4636 31.6363 23.808 31.8172 23.2556 32.0816V31.7908Z" fill="#0E879E"/>
<path fill-rule="evenodd" clip-rule="evenodd" d="M25.1648 31.2643C25.8656 31.183 26.59 31.2037 27.2738 31.3247V31.6156C26.59 31.4946 25.8656 31.4738 25.1648 31.5551V31.2643Z" fill="#0E879E"/>
<path fill-rule="evenodd" clip-rule="evenodd" d="M27.2737 31.3247C27.9575 31.4457 28.5796 31.6632 29.0848 31.958V32.2488C28.5796 31.9541 27.9575 31.7366 27.2737 31.6156V31.3247Z" fill="#0E879E"/>
<path d="M29.0855 31.9582C29.4902 32.193 29.8111 32.4723 30.0296 32.78C30.248 33.0876 30.3597 33.4175 30.3581 33.7504L30.358 33.8382H33.5615V33.7505C33.5615 33.0264 33.2554 32.3134 32.6702 31.6748C32.085 31.0362 31.2388 30.4916 30.2067 30.0893C29.1745 29.687 27.9882 29.4394 26.7528 29.3684C25.5174 29.2974 24.271 29.4052 23.1242 29.6823C21.9773 29.9594 20.9652 30.3973 20.1777 30.957C19.3902 31.5168 18.8514 32.1812 18.6092 32.8914C18.367 33.6016 18.4288 34.3357 18.7891 35.0287C19.1494 35.7216 19.7971 36.3521 20.6749 36.8641C21.3742 37.2743 22.2061 37.5995 23.1224 37.8209C24.0386 38.0423 25.0211 38.1555 26.0128 38.1539H26.1632L26.1628 36.2849H26.0124C25.2978 36.2849 24.5943 36.1821 23.9641 35.9856C23.3339 35.7891 22.7965 35.505 22.3995 35.1584C22.0025 34.8118 21.7582 34.4135 21.6882 33.9986C21.6182 33.5838 21.7246 33.1653 21.9981 32.7802C22.2715 32.3951 22.7036 32.0553 23.2559 31.7909C23.8083 31.5264 24.464 31.3456 25.1648 31.2642C25.8656 31.1829 26.5901 31.2037 27.2739 31.3247C27.9577 31.4457 28.5797 31.6632 29.085 31.9579" fill="white"/>
<path fill-rule="evenodd" clip-rule="evenodd" d="M31.3001 46.2985V48.9611L31.0427 48.8108V46.1482L31.3001 46.2985Z" fill="#00677A"/>
<path fill-rule="evenodd" clip-rule="evenodd" d="M31.3003 48.9613L34.402 47.152L34.1444 47.0017L31.0427 48.811L31.3003 48.9613Z" fill="#00677A"/>
<path fill-rule="evenodd" clip-rule="evenodd" d="M34.402 47.1517V56.6312L34.1445 56.4809V47.0015L34.402 47.1517Z" fill="#00677A"/>
<path fill-rule="evenodd" clip-rule="evenodd" d="M34.4021 56.6313L36.859 55.1981L36.6014 55.0479L34.1445 56.481L34.4021 56.6313Z" fill="#00677A"/>
<path fill-rule="evenodd" clip-rule="evenodd" d="M36.859 55.198V45.7186L36.6016 45.5684V55.0477L36.859 55.198Z" fill="#00677A"/>
<path fill-rule="evenodd" clip-rule="evenodd" d="M36.8592 45.7186L39.9609 43.9093L39.7032 43.759L36.6016 45.5683L36.8592 45.7186Z" fill="#00677A"/>
<path fill-rule="evenodd" clip-rule="evenodd" d="M39.9603 43.9093V41.2465L39.7029 41.0962V43.759L39.9603 43.9093Z" fill="#00677A"/>
<path fill-rule="evenodd" clip-rule="evenodd" d="M39.9606 41.2465L31.3003 46.2982L31.0427 46.148L39.7029 41.0962L39.9606 41.2465Z" fill="#00677A"/>
<path fill-rule="evenodd" clip-rule="evenodd" d="M31.3001 46.2985L31.0427 46.1482L31.3001 46.2985Z" fill="#00677A"/>
<path d="M31.3 46.2984V48.961L34.4017 47.1517V56.6312L36.8586 55.198V45.7187L39.9603 43.9094V41.2466L31.3 46.2984Z" fill="white"/>
<rect y="89" width="52" height="1" fill="#E8E8E8"/>
<defs>
<linearGradient id="paint0_linear_17144_138179" x1="26.0083" y1="23.5" x2="26.025" y2="34.6249" gradientUnits="userSpaceOnUse">
<stop stop-color="#0E879E"/>
<stop offset="1" stop-color="#0E879E" stop-opacity="0"/>
</linearGradient>
<linearGradient id="paint1_linear_17144_138179" x1="36.7864" y1="49.7493" x2="25.9486" y2="44.4933" gradientUnits="userSpaceOnUse">
<stop stop-color="#0E879E" stop-opacity="0.2"/>
<stop offset="1" stop-color="#056F83"/>
</linearGradient>
<linearGradient id="paint2_linear_17144_138179" x1="8" y1="44.6959" x2="17.0394" y2="49.6702" gradientUnits="userSpaceOnUse">
<stop stop-color="#0E879E"/>
<stop offset="1" stop-color="#0E879E" stop-opacity="0"/>
</linearGradient>
</defs>
</svg>
