<svg width="80" height="80" viewBox="0 0 80 80" fill="none" xmlns="http://www.w3.org/2000/svg">
<rect x="2" y="2" width="76" height="76" rx="38" stroke="#F54E4E" stroke-width="4"/>
<path fill-rule="evenodd" clip-rule="evenodd" d="M22.5858 22.5858C23.3668 21.8047 24.6332 21.8047 25.4142 22.5858L57.4142 54.5858C58.1953 55.3668 58.1953 56.6332 57.4142 57.4142C56.6332 58.1953 55.3668 58.1953 54.5858 57.4142L22.5858 25.4142C21.8047 24.6332 21.8047 23.3668 22.5858 22.5858Z" fill="#F54E4E"/>
<path fill-rule="evenodd" clip-rule="evenodd" d="M57.4142 22.5858C58.1953 23.3668 58.1953 24.6332 57.4142 25.4142L25.4142 57.4142C24.6332 58.1953 23.3668 58.1953 22.5858 57.4142C21.8047 56.6332 21.8047 55.3668 22.5858 54.5858L54.5858 22.5858C55.3668 21.8047 56.6332 21.8047 57.4142 22.5858Z" fill="#F54E4E"/>
</svg>
