<svg width="80" height="80" viewBox="0 0 80 80" fill="none" xmlns="http://www.w3.org/2000/svg">
<g clip-path="url(#clip0_3877_51882)">
<path d="M78.7893 62.4297L47.7336 8.64C46.1194 5.84407 43.2282 4.175 39.9999 4.175C36.7716 4.175 33.8804 5.84422 32.2661 8.64L1.21066 62.4297C-0.403555 65.2256 -0.403555 68.5639 1.21066 71.3598C2.82488 74.1556 5.71598 75.8248 8.94441 75.8248H71.0555C74.2838 75.8248 77.175 74.1556 78.7893 71.3598C80.4033 68.5639 80.4033 65.2256 78.7893 62.4297ZM74.7268 69.0142C73.9604 70.3414 72.588 71.1338 71.0555 71.1338H8.94441C7.41191 71.1338 6.03941 70.3414 5.27316 69.0142C4.50691 67.687 4.50691 66.1022 5.27316 64.775L36.3286 10.9853C37.095 9.65813 38.4674 8.86578 39.9999 8.86578C41.5324 8.86578 42.9049 9.65813 43.6711 10.9853L74.7268 64.775C75.493 66.1022 75.493 67.687 74.7268 69.0142Z" fill="#FF9B4B"/>
<path d="M39.9999 55.4975C38.2755 55.4975 36.8726 56.9004 36.8726 58.6248C36.8726 60.3492 38.2755 61.7522 39.9999 61.7522C41.7243 61.7522 43.1272 60.3492 43.1272 58.6248C43.1272 56.9004 41.7243 55.4975 39.9999 55.4975Z" fill="#FF9B4B"/>
<path d="M42.3452 26.5694H37.6543V50.8061H42.3452V26.5694Z" fill="#FF9B4B"/>
</g>
<defs>
<clipPath id="clip0_3877_51882">
<rect width="80" height="80" fill="white"/>
</clipPath>
</defs>
</svg>
